<?xml version="1.0" standalone="no"?>
<!DOCTYPE svg PUBLIC "-//W3C//DTD SVG 20010904//EN"
 "http://www.w3.org/TR/2001/REC-SVG-20010904/DTD/svg10.dtd">
<svg version="1.0" xmlns="http://www.w3.org/2000/svg"
 width="1011.000000pt" height="1280.000000pt" viewBox="0 0 1011.000000 1280.000000"
 preserveAspectRatio="xMidYMid meet">
<metadata>
Created by potrace 1.15, written by Peter Selinger 2001-2017
</metadata>
<g transform="translate(0.000000,1280.000000) scale(0.100000,-0.100000)"
fill="#000000" stroke="none">
<path d="M7380 12782 c-61 -23 -93 -73 -234 -357 -197 -396 -284 -648 -540
-1560 -152 -543 -220 -763 -312 -1015 -35 -96 -398 -1230 -805 -2520 -407
-1290 -742 -2347 -745 -2349 -2 -2 -34 24 -70 59 -320 298 -727 505 -1181 599
-321 66 -749 69 -1099 7 -428 -76 -883 -263 -1229 -504 -311 -217 -581 -497
-770 -797 -171 -271 -298 -627 -340 -950 -8 -66 -23 -169 -32 -230 -24 -153
-24 -517 0 -670 115 -727 492 -1357 1101 -1840 441 -349 942 -563 1496 -637
144 -19 510 -16 650 5 381 58 702 181 1012 386 597 395 1027 975 1358 1831
134 346 250 729 450 1475 168 628 242 884 341 1175 82 241 229 718 700 2280
148 492 366 1215 484 1606 118 391 215 716 215 722 0 41 25 -11 85 -170 228
-619 361 -1103 420 -1538 25 -183 31 -538 11 -698 -42 -339 -144 -621 -314
-862 -92 -132 -315 -354 -407 -405 -93 -53 -248 -206 -304 -302 -97 -164 -141
-332 -141 -538 1 -272 85 -491 251 -650 168 -160 386 -217 636 -166 192 40
513 215 776 423 133 106 372 345 477 478 730 926 979 2255 638 3405 -106 359
-420 995 -961 1950 -258 455 -1172 2005 -1221 2069 -17 23 -49 73 -71 111 -96
167 -200 224 -325 177z"/>
</g>
</svg>
